<svg width="366" height="94" viewBox="0 0 366 94" fill="none" xmlns="http://www.w3.org/2000/svg">
<path d="M70.5057 68V26.5455H83.8853C86.8271 26.5455 89.283 27.1122 91.2532 28.2457C93.2369 29.3658 94.728 30.8906 95.7266 32.8203C96.7386 34.75 97.2447 36.9226 97.2447 39.3381C97.2447 41.7535 96.7454 43.9329 95.7468 45.8761C94.7482 47.8058 93.2639 49.3374 91.2937 50.4709C89.3235 51.5909 86.8743 52.1509 83.946 52.1509H73.4205V48.7504H83.8448C86.0174 48.7504 87.8189 48.3455 89.2493 47.5359C90.6797 46.7127 91.7457 45.5927 92.4474 44.1758C93.1626 42.7589 93.5202 41.1463 93.5202 39.3381C93.5202 37.5298 93.1626 35.9173 92.4474 34.5004C91.7457 33.0835 90.6729 31.9702 89.229 31.1605C87.7987 30.3509 85.9837 29.946 83.7841 29.946H74.2908V68H70.5057ZM108.985 48.5682V68H105.382V26.5455H108.985V41.7873H109.309C110.037 40.1815 111.164 38.8995 112.689 37.9414C114.227 36.9833 116.17 36.5043 118.518 36.5043C120.624 36.5043 122.472 36.9361 124.065 37.7997C125.657 38.6634 126.898 39.9386 127.789 41.6254C128.68 43.3121 129.125 45.3903 129.125 47.8597V68H125.502V48.0824C125.502 45.5185 124.787 43.5011 123.356 42.0302C121.939 40.5458 120.023 39.8036 117.608 39.8036C115.948 39.8036 114.47 40.1545 113.175 40.8562C111.879 41.5579 110.854 42.57 110.098 43.8924C109.356 45.2013 108.985 46.7599 108.985 48.5682ZM150.697 68.6477C148.012 68.6477 145.637 67.9663 143.572 66.6033C141.521 65.2404 139.915 63.358 138.755 60.956C137.594 58.5405 137.014 55.7539 137.014 52.5962C137.014 49.4116 137.594 46.6115 138.755 44.196C139.915 41.767 141.521 39.8778 143.572 38.5284C145.637 37.1655 148.012 36.484 150.697 36.484C153.383 36.484 155.751 37.1655 157.802 38.5284C159.853 39.8913 161.459 41.7805 162.62 44.196C163.794 46.6115 164.381 49.4116 164.381 52.5962C164.381 55.7539 163.8 58.5405 162.64 60.956C161.479 63.358 159.867 65.2404 157.802 66.6033C155.751 67.9663 153.383 68.6477 150.697 68.6477ZM150.697 65.3484C152.856 65.3484 154.685 64.7681 156.183 63.6076C157.681 62.4471 158.814 60.902 159.583 58.9723C160.366 57.0426 160.757 54.9173 160.757 52.5962C160.757 50.2752 160.366 48.1431 159.583 46.1999C158.814 44.2567 157.681 42.6982 156.183 41.5241C154.685 40.3501 152.856 39.7631 150.697 39.7631C148.552 39.7631 146.723 40.3501 145.212 41.5241C143.714 42.6982 142.574 44.2567 141.791 46.1999C141.022 48.1431 140.637 50.2752 140.637 52.5962C140.637 54.9173 141.022 57.0426 141.791 58.9723C142.574 60.902 143.714 62.4471 145.212 63.6076C146.71 64.7681 148.538 65.3484 150.697 65.3484ZM175.893 48.5682V68H172.29V36.9091H175.792V41.7873H176.116C176.844 40.195 177.978 38.9197 179.516 37.9616C181.068 36.9901 182.984 36.5043 185.265 36.5043C187.356 36.5043 189.192 36.9428 190.77 37.82C192.363 38.6836 193.597 39.9588 194.475 41.6456C195.365 43.3324 195.811 45.4038 195.811 47.8597V68H192.208V48.0824C192.208 45.532 191.492 43.5146 190.062 42.0302C188.645 40.5458 186.742 39.8036 184.354 39.8036C182.721 39.8036 181.27 40.1545 180.002 40.8562C178.733 41.5579 177.728 42.57 176.986 43.8924C176.257 45.2013 175.893 46.7599 175.893 48.5682ZM217.869 68.6477C214.967 68.6477 212.457 67.973 210.339 66.6236C208.22 65.2607 206.581 63.3782 205.42 60.9762C204.273 58.5607 203.7 55.7809 203.7 52.6367C203.7 49.506 204.273 46.7262 205.42 44.2972C206.581 41.8548 208.18 39.9453 210.217 38.5689C212.269 37.179 214.637 36.484 217.322 36.484C219.009 36.484 220.635 36.7944 222.2 37.4151C223.766 38.0224 225.169 38.9602 226.411 40.2287C227.666 41.4837 228.657 43.0692 229.386 44.9854C230.115 46.8881 230.479 49.1417 230.479 51.7461V53.5273H206.189V50.3494H226.795C226.795 48.3523 226.39 46.5575 225.581 44.9652C224.785 43.3594 223.671 42.0909 222.241 41.1598C220.824 40.2287 219.184 39.7631 217.322 39.7631C215.352 39.7631 213.618 40.2894 212.12 41.342C210.622 42.3945 209.448 43.7844 208.598 45.5117C207.761 47.239 207.336 49.1282 207.323 51.1793V53.082C207.323 55.5515 207.748 57.7106 208.598 59.5593C209.462 61.3945 210.683 62.8182 212.262 63.8303C213.841 64.8423 215.71 65.3484 217.869 65.3484C219.34 65.3484 220.628 65.119 221.735 64.6602C222.855 64.2013 223.793 63.5874 224.548 62.8182C225.318 62.0355 225.898 61.1786 226.289 60.2475L229.71 61.3608C229.238 62.6697 228.462 63.8775 227.382 64.984C226.316 66.0906 224.98 66.9812 223.374 67.6559C221.782 68.3171 219.947 68.6477 217.869 68.6477ZM239.168 68V26.5455H242.791V42.8398H243.115C243.52 41.9087 244.1 40.9506 244.856 39.9656C245.625 38.9805 246.63 38.1573 247.872 37.4961C249.127 36.8214 250.705 36.484 252.608 36.484C255.159 36.484 257.399 37.1587 259.328 38.5082C261.258 39.8441 262.763 41.7198 263.842 44.1353C264.922 46.5373 265.461 49.3374 265.461 52.5355C265.461 55.7472 264.922 58.5607 263.842 60.9762C262.776 63.3917 261.278 65.2741 259.349 66.6236C257.432 67.973 255.206 68.6477 252.669 68.6477C250.78 68.6477 249.201 68.3104 247.932 67.6357C246.677 66.9609 245.665 66.131 244.896 65.146C244.127 64.1474 243.533 63.1758 243.115 62.2312H242.67V68H239.168ZM242.73 52.4748C242.73 54.9847 243.101 57.2113 243.844 59.1545C244.599 61.0842 245.679 62.6023 247.082 63.7088C248.499 64.8018 250.213 65.3484 252.224 65.3484C254.288 65.3484 256.036 64.7816 257.466 63.6481C258.896 62.5011 259.983 60.956 260.725 59.0128C261.467 57.0696 261.838 54.8903 261.838 52.4748C261.838 50.0863 261.467 47.9339 260.725 46.0178C259.996 44.1016 258.917 42.5835 257.486 41.4634C256.056 40.3299 254.302 39.7631 252.224 39.7631C250.199 39.7631 248.479 40.3097 247.062 41.4027C245.659 42.4822 244.586 43.9801 243.844 45.8963C243.101 47.799 242.73 49.9918 242.73 52.4748ZM285.46 68.6477C282.775 68.6477 280.4 67.9663 278.335 66.6033C276.284 65.2404 274.678 63.358 273.518 60.956C272.357 58.5405 271.777 55.7539 271.777 52.5962C271.777 49.4116 272.357 46.6115 273.518 44.196C274.678 41.767 276.284 39.8778 278.335 38.5284C280.4 37.1655 282.775 36.484 285.46 36.484C288.145 36.484 290.514 37.1655 292.565 38.5284C294.616 39.8913 296.222 41.7805 297.382 44.196C298.556 46.6115 299.143 49.4116 299.143 52.5962C299.143 55.7539 298.563 58.5405 297.403 60.956C296.242 63.358 294.629 65.2404 292.565 66.6033C290.514 67.9663 288.145 68.6477 285.46 68.6477ZM285.46 65.3484C287.619 65.3484 289.448 64.7681 290.945 63.6076C292.443 62.4471 293.577 60.902 294.346 58.9723C295.129 57.0426 295.52 54.9173 295.52 52.5962C295.52 50.2752 295.129 48.1431 294.346 46.1999C293.577 44.2567 292.443 42.6982 290.945 41.5241C289.448 40.3501 287.619 39.7631 285.46 39.7631C283.314 39.7631 281.486 40.3501 279.975 41.5241C278.477 42.6982 277.336 44.2567 276.554 46.1999C275.785 48.1431 275.4 50.2752 275.4 52.5962C275.4 54.9173 275.785 57.0426 276.554 58.9723C277.336 60.902 278.477 62.4471 279.975 63.6076C281.472 64.7681 283.301 65.3484 285.46 65.3484ZM319.137 68.6477C316.451 68.6477 314.076 67.9663 312.012 66.6033C309.961 65.2404 308.355 63.358 307.194 60.956C306.034 58.5405 305.454 55.7539 305.454 52.5962C305.454 49.4116 306.034 46.6115 307.194 44.196C308.355 41.767 309.961 39.8778 312.012 38.5284C314.076 37.1655 316.451 36.484 319.137 36.484C321.822 36.484 324.19 37.1655 326.242 38.5284C328.293 39.8913 329.899 41.7805 331.059 44.196C332.233 46.6115 332.82 49.4116 332.82 52.5962C332.82 55.7539 332.24 58.5405 331.079 60.956C329.919 63.358 328.306 65.2404 326.242 66.6033C324.19 67.9663 321.822 68.6477 319.137 68.6477ZM319.137 65.3484C321.296 65.3484 323.124 64.7681 324.622 63.6076C326.12 62.4471 327.254 60.902 328.023 58.9723C328.805 57.0426 329.197 54.9173 329.197 52.5962C329.197 50.2752 328.805 48.1431 328.023 46.1999C327.254 44.2567 326.12 42.6982 324.622 41.5241C323.124 40.3501 321.296 39.7631 319.137 39.7631C316.991 39.7631 315.163 40.3501 313.651 41.5241C312.153 42.6982 311.013 44.2567 310.231 46.1999C309.461 48.1431 309.077 50.2752 309.077 52.5962C309.077 54.9173 309.461 57.0426 310.231 58.9723C311.013 60.902 312.153 62.4471 313.651 63.6076C315.149 64.7681 316.978 65.3484 319.137 65.3484ZM344.009 56.2599L343.968 51.5437H344.778L359.352 36.9091H363.906L349.514 51.321L349.19 51.3817L344.009 56.2599ZM340.729 68V26.5455H344.332V68H340.729ZM360.1 68L347.47 52.0295L350.061 49.5398L364.716 68H360.1Z" fill="#212121"/>
<path d="M2 88.24V5.36C2 3.50433 3.28942 2 4.88 2H47.12C48.7107 2 50 3.50433 50 5.36V88.24C50 90.0958 48.7107 91.6 47.12 91.6H4.88C3.28942 91.6 2 90.0958 2 88.24Z" stroke="#212121" stroke-width="3"/>
<path d="M14 2H39V4C39 5.65685 37.6569 7 36 7H17C15.3431 7 14 5.65685 14 4V2Z" fill="#212121"/>
<line x1="16" y1="87.5" x2="36" y2="87.5" stroke="#212121"/>
</svg>
